<svg width="128" height="128" viewBox="0 0 128 128" fill="none" xmlns="http://www.w3.org/2000/svg">
<path d="M91.4507 105.163C91.4507 101.784 92.6366 99.1037 95.0085 97.1227C97.4991 95.0252 100.345 93.9765 103.547 93.9765C106.394 93.9765 109.181 94.967 111.908 96.9479C114.636 98.8123 116 101.376 116 104.639C116 108.018 114.755 110.756 112.264 112.854C109.774 114.951 106.927 116 103.725 116C100.879 116 98.092 115.01 95.3643 113.029C92.7552 111.048 91.4507 108.426 91.4507 105.163Z" fill="#F8F400"/>
<path d="M12 12H103.971V28.9546H100.235C100.235 23.3613 98.1597 19.6908 94.0089 17.9429H69.2817V107.086C70.3491 109.416 74.0848 110.582 80.489 110.582V114.252H35.4819V110.582C41.8861 110.582 45.6219 109.416 46.6892 107.086V17.9429H21.962C17.8112 19.6908 15.7358 23.3613 15.7358 28.9546H12V12Z" fill="#F8F400"/>
</svg>

